<svg width="215" height="48" viewBox="0 0 215 48" fill="none" xmlns="http://www.w3.org/2000/svg">
<path d="M20.3594 35H16.4063L6.26563 18.8594V35H2.3125V12.25H6.26563L16.4375 28.4531V12.25H20.3594V35ZM28.9781 29.5625L32.4156 18.0938H36.4625L29.7437 37.5625C28.7125 40.4062 26.9625 41.8281 24.4937 41.8281C23.9417 41.8281 23.3323 41.7344 22.6656 41.5469V38.6094L23.3844 38.6562C24.3427 38.6562 25.0615 38.4792 25.5406 38.125C26.0302 37.7812 26.4156 37.1979 26.6969 36.375L27.2437 34.9219L21.3062 18.0938H25.4L28.9781 29.5625ZM46.9094 35C46.7427 34.6771 46.5969 34.151 46.4719 33.4219C45.2635 34.6823 43.7844 35.3125 42.0344 35.3125C40.3365 35.3125 38.951 34.8281 37.8781 33.8594C36.8052 32.8906 36.2687 31.6927 36.2687 30.2656C36.2687 28.4635 36.9354 27.0833 38.2687 26.125C39.6125 25.1562 41.5292 24.6719 44.0187 24.6719H46.3469V23.5625C46.3469 22.6875 46.1021 21.9896 45.6125 21.4688C45.1229 20.9375 44.3781 20.6719 43.3781 20.6719C42.5135 20.6719 41.8052 20.8906 41.2531 21.3281C40.701 21.7552 40.425 22.3021 40.425 22.9688H36.6281C36.6281 22.0417 36.9354 21.1771 37.55 20.375C38.1646 19.5625 38.9979 18.9271 40.05 18.4688C41.1125 18.0104 42.2948 17.7812 43.5969 17.7812C45.576 17.7812 47.1542 18.2812 48.3312 19.2812C49.5083 20.2708 50.1125 21.6667 50.1437 23.4688V31.0938C50.1437 32.6146 50.3573 33.8281 50.7844 34.7344V35H46.9094ZM42.7375 32.2656C43.4875 32.2656 44.1906 32.0833 44.8469 31.7188C45.5135 31.3542 46.0135 30.8646 46.3469 30.25V27.0625H44.3C42.8937 27.0625 41.8365 27.3073 41.1281 27.7969C40.4198 28.2865 40.0656 28.9792 40.0656 29.875C40.0656 30.6042 40.3052 31.1875 40.7844 31.625C41.274 32.0521 41.925 32.2656 42.7375 32.2656ZM56.5594 35H52.7625V11H56.5594V35ZM69.2094 35C69.0427 34.6771 68.8969 34.151 68.7719 33.4219C67.5635 34.6823 66.0844 35.3125 64.3344 35.3125C62.6365 35.3125 61.251 34.8281 60.1781 33.8594C59.1052 32.8906 58.5687 31.6927 58.5687 30.2656C58.5687 28.4635 59.2354 27.0833 60.5687 26.125C61.9125 25.1562 63.8292 24.6719 66.3187 24.6719H68.6469V23.5625C68.6469 22.6875 68.4021 21.9896 67.9125 21.4688C67.4229 20.9375 66.6781 20.6719 65.6781 20.6719C64.8135 20.6719 64.1052 20.8906 63.5531 21.3281C63.001 21.7552 62.725 22.3021 62.725 22.9688H58.9281C58.9281 22.0417 59.2354 21.1771 59.85 20.375C60.4646 19.5625 61.2979 18.9271 62.35 18.4688C63.4125 18.0104 64.5948 17.7812 65.8969 17.7812C67.876 17.7812 69.4542 18.2812 70.6312 19.2812C71.8083 20.2708 72.4125 21.6667 72.4437 23.4688V31.0938C72.4437 32.6146 72.6573 33.8281 73.0844 34.7344V35H69.2094ZM65.0375 32.2656C65.7875 32.2656 66.4906 32.0833 67.1469 31.7188C67.8135 31.3542 68.3135 30.8646 68.6469 30.25V27.0625H66.6C65.1937 27.0625 64.1365 27.3073 63.4281 27.7969C62.7198 28.2865 62.3656 28.9792 62.3656 29.875C62.3656 30.6042 62.6052 31.1875 63.0844 31.625C63.574 32.0521 64.225 32.2656 65.0375 32.2656ZM86.6813 12.25L93.2438 29.6875L99.7906 12.25H104.9V35H100.963V27.5L101.353 17.4688L94.6344 35H91.8063L85.1031 17.4844L85.4938 27.5V35H81.5563V12.25H86.6813ZM106.909 26.3906C106.909 24.7344 107.238 23.2448 107.894 21.9219C108.55 20.5885 109.472 19.5677 110.659 18.8594C111.847 18.1406 113.211 17.7812 114.753 17.7812C117.034 17.7812 118.883 18.5156 120.3 19.9844C121.727 21.4531 122.498 23.401 122.613 25.8281L122.628 26.7188C122.628 28.3854 122.305 29.875 121.659 31.1875C121.024 32.5 120.107 33.5156 118.909 34.2344C117.722 34.9531 116.347 35.3125 114.784 35.3125C112.399 35.3125 110.488 34.5208 109.05 32.9375C107.623 31.3438 106.909 29.224 106.909 26.5781V26.3906ZM110.706 26.7188C110.706 28.4583 111.066 29.8229 111.784 30.8125C112.503 31.7917 113.503 32.2812 114.784 32.2812C116.066 32.2812 117.06 31.7812 117.769 30.7812C118.488 29.7812 118.847 28.3177 118.847 26.3906C118.847 24.6823 118.477 23.3281 117.738 22.3281C117.008 21.3281 116.014 20.8281 114.753 20.8281C113.514 20.8281 112.529 21.3229 111.8 22.3125C111.071 23.2917 110.706 24.7604 110.706 26.7188ZM128.997 13.9844V18.0938H131.981V20.9062H128.997V30.3438C128.997 30.9896 129.122 31.4583 129.372 31.75C129.632 32.0312 130.091 32.1719 130.747 32.1719C131.184 32.1719 131.627 32.1198 132.075 32.0156V34.9531C131.21 35.1927 130.377 35.3125 129.575 35.3125C126.658 35.3125 125.2 33.7031 125.2 30.4844V20.9062H122.419V18.0938H125.2V13.9844H128.997ZM132.116 26.3906C132.116 24.7344 132.444 23.2448 133.1 21.9219C133.756 20.5885 134.678 19.5677 135.866 18.8594C137.053 18.1406 138.418 17.7812 139.959 17.7812C142.241 17.7812 144.09 18.5156 145.506 19.9844C146.933 21.4531 147.704 23.401 147.819 25.8281L147.834 26.7188C147.834 28.3854 147.511 29.875 146.866 31.1875C146.23 32.5 145.314 33.5156 144.116 34.2344C142.928 34.9531 141.553 35.3125 139.991 35.3125C137.605 35.3125 135.694 34.5208 134.256 32.9375C132.829 31.3438 132.116 29.224 132.116 26.5781V26.3906ZM135.913 26.7188C135.913 28.4583 136.272 29.8229 136.991 30.8125C137.709 31.7917 138.709 32.2812 139.991 32.2812C141.272 32.2812 142.267 31.7812 142.975 30.7812C143.694 29.7812 144.053 28.3177 144.053 26.3906C144.053 24.6823 143.683 23.3281 142.944 22.3281C142.215 21.3281 141.22 20.8281 139.959 20.8281C138.72 20.8281 137.735 21.3229 137.006 22.3125C136.277 23.2917 135.913 24.7604 135.913 26.7188ZM158.297 21.5625C157.797 21.4792 157.281 21.4375 156.75 21.4375C155.01 21.4375 153.839 22.1042 153.234 23.4375V35H149.438V18.0938H153.062L153.156 19.9844C154.073 18.5156 155.344 17.7812 156.969 17.7812C157.51 17.7812 157.958 17.8542 158.312 18L158.297 21.5625ZM168.572 30.4062C168.572 29.7292 168.291 29.2135 167.728 28.8594C167.176 28.5052 166.254 28.1927 164.962 27.9219C163.671 27.651 162.593 27.3073 161.728 26.8906C159.832 25.974 158.884 24.6458 158.884 22.9062C158.884 21.4479 159.499 20.2292 160.728 19.25C161.957 18.2708 163.52 17.7812 165.416 17.7812C167.436 17.7812 169.067 18.2812 170.306 19.2812C171.556 20.2812 172.181 21.5781 172.181 23.1719H168.384C168.384 22.4427 168.114 21.8385 167.572 21.3594C167.03 20.8698 166.311 20.625 165.416 20.625C164.582 20.625 163.9 20.8177 163.369 21.2031C162.848 21.5885 162.587 22.1042 162.587 22.75C162.587 23.3333 162.832 23.7865 163.322 24.1094C163.811 24.4323 164.801 24.7604 166.291 25.0938C167.78 25.4167 168.947 25.8073 169.791 26.2656C170.645 26.7135 171.275 27.2552 171.681 27.8906C172.098 28.526 172.306 29.2969 172.306 30.2031C172.306 31.724 171.676 32.9583 170.416 33.9062C169.155 34.8438 167.504 35.3125 165.462 35.3125C164.077 35.3125 162.843 35.0625 161.759 34.5625C160.676 34.0625 159.832 33.375 159.228 32.5C158.624 31.625 158.322 30.6823 158.322 29.6719H162.009C162.061 30.5677 162.4 31.2604 163.025 31.75C163.65 32.2292 164.478 32.4688 165.509 32.4688C166.509 32.4688 167.27 32.2812 167.791 31.9062C168.311 31.5208 168.572 31.0208 168.572 30.4062Z" fill="#BD0504"/>
<path d="M191.012 30.9102C191.012 30.1836 190.841 29.5703 190.497 29.0703C190.161 28.5625 189.626 28.1172 188.891 27.7344C188.165 27.3438 187.063 26.9453 185.587 26.5391C184.11 26.1328 183.001 25.7227 182.259 25.3086C181.524 24.8945 180.985 24.4141 180.641 23.8672C180.298 23.3203 180.126 22.6562 180.126 21.875C180.126 20.6328 180.649 19.6289 181.696 18.8633C182.743 18.0898 184.106 17.7031 185.786 17.7031C186.88 17.7031 187.86 17.918 188.727 18.3477C189.602 18.7695 190.278 19.3672 190.755 20.1406C191.231 20.9062 191.47 21.7734 191.47 22.7422H190.837C190.837 21.4688 190.368 20.418 189.43 19.5898C188.493 18.7539 187.278 18.3359 185.786 18.3359C184.286 18.3359 183.071 18.6719 182.141 19.3438C181.22 20.0078 180.759 20.8438 180.759 21.8516C180.759 22.875 181.161 23.6992 181.966 24.3242C182.77 24.9492 184.098 25.5039 185.95 25.9883C187.802 26.4648 189.157 27.0195 190.016 27.6523C191.11 28.457 191.657 29.5352 191.657 30.8867C191.657 31.7461 191.415 32.5078 190.93 33.1719C190.446 33.8281 189.759 34.3359 188.868 34.6953C187.977 35.0547 186.977 35.2344 185.868 35.2344C184.634 35.2344 183.524 35.0312 182.54 34.625C181.555 34.2109 180.813 33.625 180.313 32.8672C179.821 32.1094 179.575 31.2148 179.575 30.1836H180.208C180.208 31.582 180.731 32.668 181.778 33.4414C182.825 34.2148 184.188 34.6016 185.868 34.6016C187.36 34.6016 188.591 34.2617 189.559 33.582C190.528 32.8945 191.012 32.0039 191.012 30.9102ZM193.176 34.4258C193.176 34.2461 193.238 34.0938 193.363 33.9688C193.488 33.8359 193.641 33.7695 193.82 33.7695C194 33.7695 194.152 33.8359 194.277 33.9688C194.41 34.0938 194.477 34.2461 194.477 34.4258C194.477 34.6055 194.41 34.7578 194.277 34.8828C194.152 35.0078 194 35.0703 193.82 35.0703C193.641 35.0703 193.488 35.0078 193.363 34.8828C193.238 34.7578 193.176 34.6055 193.176 34.4258ZM209.355 29.7734C209.191 31.5312 208.585 32.8828 207.538 33.8281C206.491 34.7656 205.07 35.2344 203.273 35.2344C202.062 35.2344 200.988 34.9297 200.05 34.3203C199.12 33.7031 198.398 32.832 197.882 31.707C197.366 30.5742 197.105 29.2812 197.097 27.8281V25.1914C197.097 23.7383 197.351 22.4414 197.859 21.3008C198.366 20.1523 199.089 19.2656 200.027 18.6406C200.972 18.0156 202.054 17.7031 203.273 17.7031C205.054 17.7031 206.472 18.1719 207.527 19.1094C208.581 20.0469 209.191 21.3906 209.355 23.1406H208.722C208.542 21.5703 207.995 20.3789 207.081 19.5664C206.167 18.7461 204.898 18.3359 203.273 18.3359C201.616 18.3359 200.277 18.9609 199.253 20.2109C198.238 21.4609 197.73 23.1367 197.73 25.2383V27.7461C197.73 29.0898 197.956 30.2812 198.409 31.3203C198.863 32.3516 199.511 33.1562 200.355 33.7344C201.206 34.3125 202.179 34.6016 203.273 34.6016C204.905 34.6016 206.179 34.1992 207.093 33.3945C208.015 32.5898 208.558 31.3828 208.722 29.7734H209.355ZM211.495 34.4258C211.495 34.2461 211.557 34.0938 211.682 33.9688C211.807 33.8359 211.959 33.7695 212.139 33.7695C212.319 33.7695 212.471 33.8359 212.596 33.9688C212.729 34.0938 212.795 34.2461 212.795 34.4258C212.795 34.6055 212.729 34.7578 212.596 34.8828C212.471 35.0078 212.319 35.0703 212.139 35.0703C211.959 35.0703 211.807 35.0078 211.682 34.8828C211.557 34.7578 211.495 34.6055 211.495 34.4258Z" fill="#424242" fill-opacity="0.7"/>
</svg>
