<svg width="16" height="17" viewBox="0 0 16 17" fill="none" xmlns="http://www.w3.org/2000/svg">
<g clip-path="url(#clip0)">
<path d="M7.9353 4.85522C7.53974 4.85522 7.15306 4.97252 6.82416 5.19229C6.49527 5.41205 6.23892 5.72441 6.08754 6.08986C5.93617 6.45531 5.89656 6.85744 5.97373 7.2454C6.0509 7.63337 6.24139 7.98973 6.52109 8.26944C6.8008 8.54914 7.15716 8.73962 7.54512 8.81679C7.93309 8.89396 8.33522 8.85436 8.70067 8.70298C9.06612 8.55161 9.37848 8.29526 9.59824 7.96636C9.81801 7.63747 9.93531 7.25079 9.93531 6.85522C9.9346 6.32501 9.72366 5.81671 9.34874 5.44179C8.97382 5.06687 8.46552 4.85593 7.9353 4.85522V4.85522ZM7.9353 7.85522C7.73752 7.85522 7.54418 7.79657 7.37973 7.68669C7.21529 7.57681 7.08711 7.42063 7.01142 7.23791C6.93574 7.05518 6.91593 6.85411 6.95452 6.66013C6.9931 6.46615 7.08834 6.28797 7.2282 6.14812C7.36805 6.00827 7.54623 5.91302 7.74021 5.87444C7.9342 5.83585 8.13526 5.85566 8.31799 5.93134C8.50071 6.00703 8.65689 6.13521 8.76677 6.29965C8.87666 6.4641 8.9353 6.65744 8.9353 6.85522C8.93495 7.12033 8.82948 7.37448 8.64202 7.56194C8.45456 7.7494 8.20041 7.85487 7.9353 7.85522Z" fill="#BD0504"/>
<path d="M13.3407 6.2879C13.0453 3.53924 10.738 1.41724 7.93465 1.41724C6.95367 1.4171 5.99094 1.68244 5.14856 2.18514C4.30617 2.68784 3.61554 3.40914 3.14989 4.27256C2.68425 5.13598 2.46096 6.10933 2.5037 7.08937C2.54644 8.06942 2.85361 9.01963 3.39265 9.83924L3.37998 9.81857L7.15865 15.6192C7.24268 15.7478 7.35733 15.8534 7.4923 15.9267C7.62728 15.9999 7.77834 16.0385 7.9319 16.0389C8.08547 16.0393 8.23673 16.0015 8.37208 15.9289C8.50743 15.8564 8.62263 15.7513 8.70732 15.6232L8.70932 15.6199L12.488 9.81924C13.0654 8.9363 13.3716 7.90356 13.3687 6.84857C13.3687 6.65124 13.358 6.45657 13.338 6.26457L13.34 6.28857L13.3407 6.2879ZM11.6513 9.27257L7.93532 14.9772L4.21932 9.27257C3.66794 8.41904 3.42485 7.4027 3.53034 6.39205C3.63583 5.38141 4.08357 4.43717 4.79932 3.7159C5.60198 2.91324 6.71065 2.41657 7.93532 2.41657C9.15998 2.41657 10.2687 2.91324 11.0713 3.7159C11.7871 4.43717 12.2348 5.38141 12.3403 6.39205C12.4458 7.4027 12.2027 8.41904 11.6513 9.27257V9.27257Z" fill="#BD0504"/>
</g>
<defs>
<clipPath id="clip0">
<rect y="0.86792" width="16" height="16" fill="white"/>
</clipPath>
</defs>
</svg>
