<svg width="84" height="85" viewBox="0 0 84 85" fill="none" xmlns="http://www.w3.org/2000/svg">
<g opacity="0.91">
<path d="M81.0886 45.8781C80.4979 39.2484 79.525 37.9572 79.1575 37.4716C78.3126 36.3494 76.9607 35.616 75.5301 34.8466C75.4492 34.8038 75.3794 34.7428 75.3261 34.6684C75.2728 34.594 75.2375 34.5082 75.223 34.4179C75.2085 34.3275 75.2152 34.235 75.2426 34.1477C75.27 34.0604 75.3173 33.9806 75.3808 33.9147C75.6458 33.646 75.8494 33.3231 75.9777 32.9683C76.106 32.6134 76.1559 32.235 76.124 31.859C76.0623 31.1923 75.7523 30.5731 75.2554 30.1242C74.7586 29.6754 74.1112 29.4296 73.4416 29.4358H70.8822C70.7725 29.4364 70.663 29.4436 70.5541 29.4571C70.4794 29.4247 70.402 29.3989 70.3228 29.38C68.8068 26.1759 66.7314 21.7888 62.4297 19.6478C56.0493 16.4749 44.2959 16.3108 41.999 16.3108C39.7021 16.3108 27.9487 16.4749 21.5765 19.6429C17.2748 21.7839 15.1994 26.1709 13.6835 29.3751L13.6704 29.4013C13.5947 29.412 13.5205 29.4307 13.4489 29.4571C13.34 29.4436 13.2304 29.4364 13.1207 29.4358H10.5564C9.88689 29.4296 9.23948 29.6754 8.74262 30.1242C8.24575 30.5731 7.93573 31.1923 7.87402 31.859C7.84488 32.2341 7.89708 32.6111 8.02704 32.9642C8.15701 33.3173 8.36168 33.6381 8.62707 33.9049C8.69056 33.9708 8.73786 34.0505 8.76525 34.1379C8.79264 34.2252 8.79936 34.3177 8.78488 34.408C8.7704 34.4984 8.73513 34.5842 8.68183 34.6586C8.62853 34.733 8.55868 34.7939 8.47777 34.8367C7.04715 35.6111 5.68871 36.3445 4.85035 37.4617C4.48285 37.9539 3.5116 39.2385 2.91934 45.8683C2.59121 49.5991 2.54199 53.4611 2.79957 55.9483C3.33934 61.1163 4.3516 64.24 4.39426 64.3696C4.54959 64.8413 4.83552 65.2592 5.21885 65.5749C5.60218 65.8905 6.06719 66.091 6.55988 66.153V66.1858C6.55988 66.882 6.83644 67.5497 7.32873 68.0419C7.82101 68.5342 8.48869 68.8108 9.18488 68.8108H18.3724C19.0686 68.8108 19.7363 68.5342 20.2285 68.0419C20.7208 67.5497 20.9974 66.882 20.9974 66.1858C22.41 66.1858 23.3927 65.9331 24.4345 65.6641C25.9386 65.2588 27.476 64.9892 29.0282 64.8585C34.0338 64.3811 39.0114 64.217 41.999 64.217C44.9259 64.217 50.1234 64.3811 55.1371 64.8585C56.6955 64.9895 58.239 65.2602 59.7489 65.6674C60.7464 65.9233 61.6931 66.1595 63.0039 66.1842C63.0039 66.8803 63.2805 67.548 63.7728 68.0403C64.2651 68.5326 64.9328 68.8092 65.6289 68.8092H74.8164C75.5126 68.8092 76.1803 68.5326 76.6726 68.0403C77.1649 67.548 77.4414 66.8803 77.4414 66.1842V66.1645C77.9353 66.1036 78.4017 65.9037 78.7863 65.588C79.1709 65.2722 79.4578 64.8537 79.6136 64.3811C79.6563 64.2515 80.6686 61.1277 81.2083 55.9598C81.4659 53.471 81.42 49.6155 81.0886 45.8781ZM18.4282 31.6195C19.7407 28.8304 21.2418 25.6738 23.9144 24.3433C27.7764 22.4205 35.7811 21.5542 41.999 21.5542C48.217 21.5542 56.2216 22.4139 60.0836 24.3433C62.7562 25.6738 64.2508 28.832 65.5699 31.6195L65.7339 31.9755C65.8299 32.1782 65.8723 32.402 65.8571 32.6258C65.842 32.8495 65.7697 33.0656 65.6473 33.2535C65.5249 33.4414 65.3564 33.5947 65.1579 33.699C64.9594 33.8033 64.7375 33.8549 64.5133 33.8491C59.0615 33.7014 47.5771 33.2289 41.999 33.2289C36.4209 33.2289 24.9365 33.7129 19.4765 33.8606C19.2524 33.8664 19.0304 33.8148 18.8319 33.7105C18.6334 33.6062 18.4649 33.4528 18.3425 33.265C18.2201 33.0771 18.1479 32.861 18.1327 32.6372C18.1175 32.4135 18.16 32.1896 18.2559 31.987C18.3133 31.8656 18.374 31.7425 18.4282 31.6195ZM20.3854 44.6838C17.5632 45.0234 14.723 45.1911 11.8804 45.1858C10.1414 45.1858 8.34816 44.6936 8.01512 43.1449C7.78707 42.1031 7.81168 41.5174 7.93473 40.9284C8.03809 40.428 8.20215 40.0638 9.02246 39.9358C11.1553 39.6077 12.348 40.0195 15.8393 41.0481C18.1542 41.729 19.8243 42.6363 20.7759 43.3549C21.2533 43.7092 20.999 44.6345 20.3854 44.6838ZM56.7056 58.1369C54.5465 58.383 50.2284 58.2927 42.0482 58.2927C33.8681 58.2927 29.5516 58.383 27.3925 58.1369C25.1646 57.8892 22.3246 55.7826 24.2639 53.9057C25.555 52.6687 28.5672 51.7434 32.5786 51.2233C36.5899 50.7032 38.2879 50.4358 42.0318 50.4358C45.7757 50.4358 47.3015 50.5999 51.4851 51.2249C55.6687 51.85 58.8302 52.7868 59.7998 53.9074C61.5684 55.9155 58.9319 57.876 56.7056 58.1467V58.1369ZM75.9829 43.1432C75.6548 44.6985 73.8501 45.1841 72.1176 45.1841C69.2206 45.1848 66.3261 45.0172 63.4486 44.6821C62.9465 44.6345 62.7136 43.7535 63.2221 43.3532C64.1589 42.6166 65.8471 41.7274 68.1588 41.0465C71.65 40.0178 73.6631 39.606 75.3923 39.9489C75.8139 40.0326 76.0371 40.4854 76.0633 40.7692C76.179 41.5595 76.1518 42.3642 75.9829 43.1449V43.1432Z" fill="white"/>
</g>
</svg>
