<svg width="84" height="85" viewBox="0 0 84 85" fill="none" xmlns="http://www.w3.org/2000/svg">
<g opacity="0.91" clip-path="url(#clip0)">
<path d="M36.0093 13.4782L31.9202 19.0406H22.3711C23.5487 22.4006 27.4043 25.5691 32.7887 24.5174C34.3847 24.4099 39.7691 23.5548 42.0002 24.0806C44.9704 24.793 43.7323 24.7963 49.0579 29.0702L75.6002 50.9606C77.2264 52.397 79.3063 51.809 80.746 50.1862C82.1858 48.5599 82.2664 45.677 80.6402 44.2406L47.0402 17.3606C44.9368 15.6722 44.4059 13.3337 43.6802 10.6406C42.269 6.01224 37.0795 2.29944 31.9857 2.29944C27.8815 2.29944 23.4647 5.84928 21.8402 8.96064H31.9202L36.0093 13.4782ZM59.0589 54.3206L48.6731 36.2942C48.2632 35.5466 47.2267 34.1606 46.3749 34.1606H17.4655C16.6137 34.1606 15.5771 35.5466 15.1655 36.2942L5.04018 54.3206H4.78146C3.07626 54.3206 1.68018 54.9406 1.68018 56.6474V72.1538C1.68018 73.8607 3.07626 74.4806 4.78146 74.4806H8.40018V79.907C8.40018 82.4674 9.97602 84.5606 12.5347 84.5606H14.0853C16.6456 84.5606 18.4802 82.4674 18.4802 79.907V74.4806H45.3602V79.907C45.3602 82.4657 47.1947 84.5606 49.7534 84.5606H51.304C53.8643 84.5606 55.4402 82.4674 55.4402 79.907V74.4806H59.0589C60.7641 74.4806 62.1602 73.8607 62.1602 72.1538V56.6474C62.1602 54.9406 60.7641 54.3206 59.0589 54.3206ZM10.2095 65.9513C9.69366 65.962 9.18083 65.8697 8.7011 65.6797C8.22137 65.4897 7.78438 65.2059 7.41575 64.8448C7.04712 64.4838 6.75425 64.0528 6.55431 63.5771C6.35438 63.1015 6.25139 62.5907 6.25139 62.0747C6.25139 61.5587 6.35438 61.0479 6.55431 60.5722C6.75425 60.0966 7.04712 59.6656 7.41575 59.3045C7.78438 58.9435 8.22137 58.6597 8.7011 58.4697C9.18083 58.2797 9.69366 58.1873 10.2095 58.1981C11.2237 58.2192 12.1892 58.6369 12.899 59.3616C13.6088 60.0863 14.0063 61.0603 14.0063 62.0747C14.0063 63.0891 13.6088 64.0631 12.899 64.7878C12.1892 65.5125 11.2237 65.9302 10.2095 65.9513ZM13.3108 54.3206L19.5957 41.1696C19.9771 40.4069 20.9884 39.2006 21.8402 39.2006H42.0002C42.8519 39.2006 43.8616 40.4069 44.2447 41.1696L50.5295 54.3206H13.3108ZM53.6308 65.9513C52.6025 65.9513 51.6162 65.5428 50.8891 64.8156C50.1619 64.0884 49.7534 63.1022 49.7534 62.0738C49.7534 61.0455 50.1619 60.0592 50.8891 59.3321C51.6162 58.6049 52.6025 58.1964 53.6308 58.1964C54.6592 58.1964 55.6454 58.6049 56.3726 59.3321C57.0997 60.0592 57.5083 61.0455 57.5083 62.0738C57.5083 63.1022 57.0997 64.0884 56.3726 64.8156C55.6454 65.5428 54.6592 65.9513 53.6308 65.9513Z" fill="white"/>
</g>
<defs>
<clipPath id="clip0">
<rect width="84" height="84" fill="white" transform="translate(0 0.560791)"/>
</clipPath>
</defs>
</svg>
