<svg width="190" height="48" viewBox="0 0 190 48" fill="none" xmlns="http://www.w3.org/2000/svg">
<path d="M17.8145 34H14.3555L5.48242 19.877V34H2.02344V14.0938H5.48242L14.3828 28.2715V14.0938H17.8145V34ZM25.3559 29.2422L28.3637 19.207H31.9047L26.0258 36.2422C25.1234 38.7305 23.5922 39.9746 21.432 39.9746C20.949 39.9746 20.4158 39.8926 19.8324 39.7285V37.1582L20.4613 37.1992C21.2999 37.1992 21.9288 37.0443 22.348 36.7344C22.7764 36.4336 23.1137 35.9232 23.3598 35.2031L23.8383 33.9316L18.643 19.207H22.225L25.3559 29.2422ZM41.0457 34C40.8999 33.7174 40.7723 33.2572 40.6629 32.6191C39.6056 33.722 38.3113 34.2734 36.7801 34.2734C35.2944 34.2734 34.0822 33.8496 33.1434 33.002C32.2046 32.1543 31.7352 31.1061 31.7352 29.8574C31.7352 28.2806 32.3185 27.0729 33.4852 26.2344C34.6609 25.3867 36.338 24.9629 38.5164 24.9629H40.5535V23.9922C40.5535 23.2266 40.3393 22.6159 39.9109 22.1602C39.4826 21.6953 38.8309 21.4629 37.9559 21.4629C37.1993 21.4629 36.5796 21.6543 36.0965 22.0371C35.6134 22.4108 35.3719 22.8893 35.3719 23.4727H32.0496C32.0496 22.6615 32.3185 21.9049 32.8563 21.2031C33.394 20.4922 34.1232 19.9362 35.0438 19.5352C35.9734 19.1341 37.0079 18.9336 38.1473 18.9336C39.879 18.9336 41.2599 19.3711 42.2898 20.2461C43.3198 21.112 43.8484 22.3333 43.8758 23.9102V30.582C43.8758 31.9128 44.0626 32.9746 44.4363 33.7676V34H41.0457ZM37.3953 31.6074C38.0516 31.6074 38.6668 31.4479 39.241 31.1289C39.8243 30.8099 40.2618 30.3815 40.5535 29.8438V27.0547H38.7625C37.532 27.0547 36.6069 27.2689 35.9871 27.6973C35.3673 28.1257 35.0574 28.7318 35.0574 29.5156C35.0574 30.1536 35.2671 30.6641 35.6863 31.0469C36.1147 31.4206 36.6844 31.6074 37.3953 31.6074ZM49.4895 34H46.1672V13H49.4895V34ZM60.5582 34C60.4124 33.7174 60.2848 33.2572 60.1754 32.6191C59.1181 33.722 57.8238 34.2734 56.2926 34.2734C54.8069 34.2734 53.5947 33.8496 52.6559 33.002C51.7171 32.1543 51.2477 31.1061 51.2477 29.8574C51.2477 28.2806 51.831 27.0729 52.9977 26.2344C54.1734 25.3867 55.8505 24.9629 58.0289 24.9629H60.066V23.9922C60.066 23.2266 59.8518 22.6159 59.4234 22.1602C58.9951 21.6953 58.3434 21.4629 57.4684 21.4629C56.7119 21.4629 56.0921 21.6543 55.609 22.0371C55.1259 22.4108 54.8844 22.8893 54.8844 23.4727H51.5621C51.5621 22.6615 51.831 21.9049 52.3688 21.2031C52.9065 20.4922 53.6357 19.9362 54.5563 19.5352C55.4859 19.1341 56.5204 18.9336 57.6598 18.9336C59.3915 18.9336 60.7724 19.3711 61.8023 20.2461C62.8323 21.112 63.3609 22.3333 63.3883 23.9102V30.582C63.3883 31.9128 63.5751 32.9746 63.9488 33.7676V34H60.5582ZM56.9078 31.6074C57.5641 31.6074 58.1793 31.4479 58.7535 31.1289C59.3369 30.8099 59.7744 30.3815 60.066 29.8438V27.0547H58.275C57.0445 27.0547 56.1194 27.2689 55.4996 27.6973C54.8798 28.1257 54.5699 28.7318 54.5699 29.5156C54.5699 30.1536 54.7796 30.6641 55.1988 31.0469C55.6272 31.4206 56.1969 31.6074 56.9078 31.6074ZM75.8461 14.0938L81.5883 29.3516L87.3168 14.0938H91.7875V34H88.3422V27.4375L88.684 18.6602L82.8051 34H80.3305L74.4652 18.6738L74.807 27.4375V34H71.3617V14.0938H75.8461ZM93.5457 26.4668C93.5457 25.0176 93.8328 23.7142 94.407 22.5566C94.9812 21.39 95.7879 20.4967 96.827 19.877C97.866 19.248 99.06 18.9336 100.409 18.9336C102.405 18.9336 104.023 19.5762 105.262 20.8613C106.511 22.1465 107.186 23.8509 107.286 25.9746L107.3 26.7539C107.3 28.2122 107.017 29.5156 106.452 30.6641C105.896 31.8125 105.094 32.7012 104.046 33.3301C103.007 33.959 101.804 34.2734 100.436 34.2734C98.3491 34.2734 96.6766 33.5807 95.4187 32.1953C94.17 30.8008 93.5457 28.946 93.5457 26.6309V26.4668ZM96.868 26.7539C96.868 28.276 97.1824 29.4701 97.8113 30.3359C98.4402 31.1927 99.3152 31.6211 100.436 31.6211C101.557 31.6211 102.428 31.1836 103.048 30.3086C103.677 29.4336 103.991 28.153 103.991 26.4668C103.991 24.972 103.667 23.7871 103.02 22.9121C102.382 22.0371 101.512 21.5996 100.409 21.5996C99.3243 21.5996 98.463 22.0326 97.825 22.8984C97.187 23.7552 96.868 25.0404 96.868 26.7539ZM112.872 15.6113V19.207H115.484V21.668H112.872V29.9258C112.872 30.4909 112.982 30.901 113.2 31.1562C113.428 31.4023 113.829 31.5254 114.404 31.5254C114.786 31.5254 115.174 31.4798 115.566 31.3887V33.959C114.809 34.1686 114.08 34.2734 113.378 34.2734C110.826 34.2734 109.55 32.8652 109.55 30.0488V21.668H107.116V19.207H109.55V15.6113H112.872ZM115.601 26.4668C115.601 25.0176 115.888 23.7142 116.463 22.5566C117.037 21.39 117.843 20.4967 118.882 19.877C119.921 19.248 121.115 18.9336 122.464 18.9336C124.461 18.9336 126.078 19.5762 127.318 20.8613C128.567 22.1465 129.241 23.8509 129.341 25.9746L129.355 26.7539C129.355 28.2122 129.073 29.5156 128.507 30.6641C127.951 31.8125 127.149 32.7012 126.101 33.3301C125.062 33.959 123.859 34.2734 122.492 34.2734C120.405 34.2734 118.732 33.5807 117.474 32.1953C116.226 30.8008 115.601 28.946 115.601 26.6309V26.4668ZM118.923 26.7539C118.923 28.276 119.238 29.4701 119.867 30.3359C120.496 31.1927 121.371 31.6211 122.492 31.6211C123.613 31.6211 124.483 31.1836 125.103 30.3086C125.732 29.4336 126.046 28.153 126.046 26.4668C126.046 24.972 125.723 23.7871 125.076 22.9121C124.438 22.0371 123.567 21.5996 122.464 21.5996C121.38 21.5996 120.518 22.0326 119.88 22.8984C119.242 23.7552 118.923 25.0404 118.923 26.7539ZM138.51 22.2422C138.072 22.1693 137.621 22.1328 137.156 22.1328C135.634 22.1328 134.609 22.7161 134.08 23.8828V34H130.758V19.207H133.93L134.012 20.8613C134.814 19.5762 135.926 18.9336 137.348 18.9336C137.822 18.9336 138.214 18.9974 138.523 19.125L138.51 22.2422ZM147.5 29.9805C147.5 29.388 147.254 28.9368 146.762 28.627C146.279 28.3171 145.472 28.0436 144.342 27.8066C143.212 27.5697 142.269 27.2689 141.512 26.9043C139.853 26.1022 139.024 24.9401 139.024 23.418C139.024 22.1419 139.562 21.0755 140.637 20.2188C141.713 19.362 143.08 18.9336 144.739 18.9336C146.507 18.9336 147.933 19.3711 149.018 20.2461C150.112 21.1211 150.659 22.2559 150.659 23.6504H147.336C147.336 23.0124 147.099 22.4837 146.625 22.0645C146.151 21.6361 145.523 21.4219 144.739 21.4219C144.01 21.4219 143.413 21.5905 142.948 21.9277C142.492 22.265 142.264 22.7161 142.264 23.2812C142.264 23.7917 142.478 24.1882 142.907 24.4707C143.335 24.7533 144.201 25.0404 145.504 25.332C146.808 25.6146 147.829 25.9564 148.567 26.3574C149.314 26.7493 149.866 27.2233 150.221 27.7793C150.586 28.3353 150.768 29.0098 150.768 29.8027C150.768 31.1335 150.217 32.2135 149.114 33.043C148.011 33.8633 146.566 34.2734 144.78 34.2734C143.567 34.2734 142.487 34.0547 141.539 33.6172C140.592 33.1797 139.853 32.5781 139.325 31.8125C138.796 31.0469 138.532 30.222 138.532 29.3379H141.758C141.804 30.1217 142.1 30.7279 142.647 31.1562C143.194 31.5755 143.918 31.7852 144.821 31.7852C145.696 31.7852 146.361 31.6211 146.817 31.293C147.273 30.9557 147.5 30.5182 147.5 29.9805Z" fill="#BD0504"/>
<path d="M166.48 30.3291C166.48 29.502 166.189 28.8491 165.608 28.3706C165.027 27.8853 163.964 27.4272 162.419 26.9966C160.874 26.5591 159.746 26.084 159.035 25.5713C158.024 24.8467 157.518 23.8965 157.518 22.7207C157.518 21.5791 157.986 20.6528 158.923 19.9419C159.866 19.2241 161.069 18.8652 162.532 18.8652C163.523 18.8652 164.408 19.0566 165.188 19.4395C165.974 19.8223 166.582 20.3555 167.013 21.0391C167.444 21.7227 167.659 22.4849 167.659 23.3257H166.387C166.387 22.3071 166.039 21.4902 165.342 20.875C164.644 20.2529 163.708 19.9419 162.532 19.9419C161.39 19.9419 160.481 20.1982 159.804 20.7109C159.128 21.2168 158.789 21.8799 158.789 22.7002C158.789 23.459 159.093 24.0776 159.702 24.5562C160.31 25.0347 161.284 25.4585 162.624 25.8276C163.964 26.1899 164.979 26.5693 165.67 26.9658C166.36 27.3555 166.88 27.8237 167.228 28.3706C167.577 28.9175 167.751 29.5635 167.751 30.3086C167.751 31.4844 167.279 32.4277 166.336 33.1387C165.4 33.8496 164.162 34.2051 162.624 34.2051C161.571 34.2051 160.604 34.0171 159.722 33.6411C158.847 33.2651 158.181 32.7388 157.723 32.062C157.272 31.3853 157.046 30.6094 157.046 29.7344H158.307C158.307 30.7871 158.7 31.6177 159.487 32.2261C160.273 32.8345 161.319 33.1387 162.624 33.1387C163.786 33.1387 164.719 32.8823 165.424 32.3696C166.128 31.8569 166.48 31.1768 166.48 30.3291ZM169.029 33.2617C169.029 33.0225 169.104 32.8208 169.254 32.6567C169.412 32.4858 169.627 32.4004 169.9 32.4004C170.174 32.4004 170.389 32.4858 170.546 32.6567C170.704 32.8208 170.782 33.0225 170.782 33.2617C170.782 33.501 170.704 33.6992 170.546 33.8564C170.389 34.0068 170.174 34.082 169.9 34.082C169.627 34.082 169.412 34.0068 169.254 33.8564C169.104 33.6992 169.029 33.501 169.029 33.2617ZM183.975 29.3447C183.804 30.917 183.24 32.1201 182.283 32.9541C181.333 33.7881 180.065 34.2051 178.479 34.2051C177.371 34.2051 176.39 33.9282 175.536 33.3745C174.688 32.8208 174.032 32.0381 173.567 31.0264C173.102 30.0078 172.867 28.8457 172.86 27.54V25.6021C172.86 24.2759 173.092 23.1001 173.557 22.0747C174.022 21.0493 174.688 20.2598 175.556 19.7061C176.431 19.1455 177.436 18.8652 178.571 18.8652C180.171 18.8652 181.432 19.2993 182.355 20.1675C183.284 21.0288 183.825 22.2217 183.975 23.7461H182.703C182.389 21.21 181.012 19.9419 178.571 19.9419C177.218 19.9419 176.137 20.4478 175.331 21.4595C174.531 22.4712 174.131 23.8691 174.131 25.6533V27.4785C174.131 29.2012 174.521 30.5752 175.3 31.6006C176.086 32.626 177.146 33.1387 178.479 33.1387C179.798 33.1387 180.793 32.8242 181.463 32.1953C182.133 31.5596 182.546 30.6094 182.703 29.3447H183.975ZM185.591 33.2617C185.591 33.0225 185.666 32.8208 185.816 32.6567C185.974 32.4858 186.189 32.4004 186.462 32.4004C186.736 32.4004 186.951 32.4858 187.108 32.6567C187.266 32.8208 187.344 33.0225 187.344 33.2617C187.344 33.501 187.266 33.6992 187.108 33.8564C186.951 34.0068 186.736 34.082 186.462 34.082C186.189 34.082 185.974 34.0068 185.816 33.8564C185.666 33.6992 185.591 33.501 185.591 33.2617Z" fill="#424242" fill-opacity="0.7"/>
</svg>
