<svg width="218" height="48" viewBox="0 0 218 48" fill="none" xmlns="http://www.w3.org/2000/svg">
<path d="M20.3594 35H16.4062L6.26562 18.8594V35H2.3125V12.25H6.26562L16.4375 28.4531V12.25H20.3594V35ZM28.9781 29.5625L32.4156 18.0938H36.4625L29.7437 37.5625C28.7125 40.4062 26.9625 41.8281 24.4937 41.8281C23.9417 41.8281 23.3323 41.7344 22.6656 41.5469V38.6094L23.3844 38.6562C24.3427 38.6562 25.0615 38.4792 25.5406 38.125C26.0302 37.7812 26.4156 37.1979 26.6969 36.375L27.2437 34.9219L21.3062 18.0938H25.4L28.9781 29.5625ZM46.9094 35C46.7427 34.6771 46.5969 34.151 46.4719 33.4219C45.2635 34.6823 43.7844 35.3125 42.0344 35.3125C40.3365 35.3125 38.951 34.8281 37.8781 33.8594C36.8052 32.8906 36.2687 31.6927 36.2687 30.2656C36.2687 28.4635 36.9354 27.0833 38.2687 26.125C39.6125 25.1562 41.5292 24.6719 44.0187 24.6719H46.3469V23.5625C46.3469 22.6875 46.1021 21.9896 45.6125 21.4688C45.1229 20.9375 44.3781 20.6719 43.3781 20.6719C42.5135 20.6719 41.8052 20.8906 41.2531 21.3281C40.701 21.7552 40.425 22.3021 40.425 22.9688H36.6281C36.6281 22.0417 36.9354 21.1771 37.55 20.375C38.1646 19.5625 38.9979 18.9271 40.05 18.4688C41.1125 18.0104 42.2948 17.7812 43.5969 17.7812C45.576 17.7812 47.1542 18.2812 48.3312 19.2812C49.5083 20.2708 50.1125 21.6667 50.1437 23.4688V31.0938C50.1437 32.6146 50.3573 33.8281 50.7844 34.7344V35H46.9094ZM42.7375 32.2656C43.4875 32.2656 44.1906 32.0833 44.8469 31.7188C45.5135 31.3542 46.0135 30.8646 46.3469 30.25V27.0625H44.3C42.8937 27.0625 41.8365 27.3073 41.1281 27.7969C40.4198 28.2865 40.0656 28.9792 40.0656 29.875C40.0656 30.6042 40.3052 31.1875 40.7844 31.625C41.274 32.0521 41.925 32.2656 42.7375 32.2656ZM56.5594 35H52.7625V11H56.5594V35ZM69.2094 35C69.0427 34.6771 68.8969 34.151 68.7719 33.4219C67.5635 34.6823 66.0844 35.3125 64.3344 35.3125C62.6365 35.3125 61.251 34.8281 60.1781 33.8594C59.1052 32.8906 58.5687 31.6927 58.5687 30.2656C58.5687 28.4635 59.2354 27.0833 60.5687 26.125C61.9125 25.1562 63.8292 24.6719 66.3187 24.6719H68.6469V23.5625C68.6469 22.6875 68.4021 21.9896 67.9125 21.4688C67.4229 20.9375 66.6781 20.6719 65.6781 20.6719C64.8135 20.6719 64.1052 20.8906 63.5531 21.3281C63.001 21.7552 62.725 22.3021 62.725 22.9688H58.9281C58.9281 22.0417 59.2354 21.1771 59.85 20.375C60.4646 19.5625 61.2979 18.9271 62.35 18.4688C63.4125 18.0104 64.5948 17.7812 65.8969 17.7812C67.876 17.7812 69.4542 18.2812 70.6312 19.2812C71.8083 20.2708 72.4125 21.6667 72.4437 23.4688V31.0938C72.4437 32.6146 72.6573 33.8281 73.0844 34.7344V35H69.2094ZM65.0375 32.2656C65.7875 32.2656 66.4906 32.0833 67.1469 31.7188C67.8135 31.3542 68.3135 30.8646 68.6469 30.25V27.0625H66.6C65.1937 27.0625 64.1365 27.3073 63.4281 27.7969C62.7198 28.2865 62.3656 28.9792 62.3656 29.875C62.3656 30.6042 62.6052 31.1875 63.0844 31.625C63.574 32.0521 64.225 32.2656 65.0375 32.2656ZM86.6813 12.25L93.2438 29.6875L99.7906 12.25H104.9V35H100.963V27.5L101.353 17.4688L94.6344 35H91.8063L85.1031 17.4844L85.4938 27.5V35H81.5563V12.25H86.6813ZM106.909 26.3906C106.909 24.7344 107.238 23.2448 107.894 21.9219C108.55 20.5885 109.472 19.5677 110.659 18.8594C111.847 18.1406 113.211 17.7812 114.753 17.7812C117.034 17.7812 118.883 18.5156 120.3 19.9844C121.727 21.4531 122.498 23.401 122.613 25.8281L122.628 26.7188C122.628 28.3854 122.305 29.875 121.659 31.1875C121.024 32.5 120.107 33.5156 118.909 34.2344C117.722 34.9531 116.347 35.3125 114.784 35.3125C112.399 35.3125 110.488 34.5208 109.05 32.9375C107.623 31.3438 106.909 29.224 106.909 26.5781V26.3906ZM110.706 26.7188C110.706 28.4583 111.066 29.8229 111.784 30.8125C112.503 31.7917 113.503 32.2812 114.784 32.2812C116.066 32.2812 117.06 31.7812 117.769 30.7812C118.488 29.7812 118.847 28.3177 118.847 26.3906C118.847 24.6823 118.477 23.3281 117.738 22.3281C117.008 21.3281 116.014 20.8281 114.753 20.8281C113.514 20.8281 112.529 21.3229 111.8 22.3125C111.071 23.2917 110.706 24.7604 110.706 26.7188ZM128.997 13.9844V18.0938H131.981V20.9062H128.997V30.3438C128.997 30.9896 129.122 31.4583 129.372 31.75C129.632 32.0312 130.091 32.1719 130.747 32.1719C131.184 32.1719 131.627 32.1198 132.075 32.0156V34.9531C131.21 35.1927 130.377 35.3125 129.575 35.3125C126.658 35.3125 125.2 33.7031 125.2 30.4844V20.9062H122.419V18.0938H125.2V13.9844H128.997ZM132.116 26.3906C132.116 24.7344 132.444 23.2448 133.1 21.9219C133.756 20.5885 134.678 19.5677 135.866 18.8594C137.053 18.1406 138.418 17.7812 139.959 17.7812C142.241 17.7812 144.09 18.5156 145.506 19.9844C146.933 21.4531 147.704 23.401 147.819 25.8281L147.834 26.7188C147.834 28.3854 147.511 29.875 146.866 31.1875C146.23 32.5 145.314 33.5156 144.116 34.2344C142.928 34.9531 141.553 35.3125 139.991 35.3125C137.605 35.3125 135.694 34.5208 134.256 32.9375C132.829 31.3438 132.116 29.224 132.116 26.5781V26.3906ZM135.913 26.7188C135.913 28.4583 136.272 29.8229 136.991 30.8125C137.709 31.7917 138.709 32.2812 139.991 32.2812C141.272 32.2812 142.267 31.7812 142.975 30.7812C143.694 29.7812 144.053 28.3177 144.053 26.3906C144.053 24.6823 143.683 23.3281 142.944 22.3281C142.215 21.3281 141.22 20.8281 139.959 20.8281C138.72 20.8281 137.735 21.3229 137.006 22.3125C136.277 23.2917 135.913 24.7604 135.913 26.7188ZM158.297 21.5625C157.797 21.4792 157.281 21.4375 156.75 21.4375C155.01 21.4375 153.839 22.1042 153.234 23.4375V35H149.438V18.0938H153.062L153.156 19.9844C154.073 18.5156 155.344 17.7812 156.969 17.7812C157.51 17.7812 157.958 17.8542 158.312 18L158.297 21.5625ZM168.572 30.4062C168.572 29.7292 168.291 29.2135 167.728 28.8594C167.176 28.5052 166.254 28.1927 164.962 27.9219C163.671 27.651 162.593 27.3073 161.728 26.8906C159.832 25.974 158.884 24.6458 158.884 22.9062C158.884 21.4479 159.499 20.2292 160.728 19.25C161.957 18.2708 163.52 17.7812 165.416 17.7812C167.436 17.7812 169.067 18.2812 170.306 19.2812C171.556 20.2812 172.181 21.5781 172.181 23.1719H168.384C168.384 22.4427 168.114 21.8385 167.572 21.3594C167.03 20.8698 166.311 20.625 165.416 20.625C164.582 20.625 163.9 20.8177 163.369 21.2031C162.848 21.5885 162.587 22.1042 162.587 22.75C162.587 23.3333 162.832 23.7865 163.322 24.1094C163.811 24.4323 164.801 24.7604 166.291 25.0938C167.78 25.4167 168.947 25.8073 169.791 26.2656C170.645 26.7135 171.275 27.2552 171.681 27.8906C172.098 28.526 172.306 29.2969 172.306 30.2031C172.306 31.724 171.676 32.9583 170.416 33.9062C169.155 34.8438 167.504 35.3125 165.462 35.3125C164.077 35.3125 162.843 35.0625 161.759 34.5625C160.676 34.0625 159.832 33.375 159.228 32.5C158.624 31.625 158.322 30.6823 158.322 29.6719H162.009C162.061 30.5677 162.4 31.2604 163.025 31.75C163.65 32.2292 164.478 32.4688 165.509 32.4688C166.509 32.4688 167.27 32.2812 167.791 31.9062C168.311 31.5208 168.572 31.0208 168.572 30.4062Z" fill="#BD0504"/>
<path d="M190.755 30.6299C190.755 29.6452 190.409 28.868 189.717 28.2983C189.025 27.7205 187.76 27.1753 185.921 26.6626C184.082 26.1418 182.739 25.5762 181.892 24.9658C180.688 24.1032 180.086 22.972 180.086 21.5723C180.086 20.2132 180.643 19.1105 181.758 18.2642C182.881 17.4097 184.313 16.9824 186.055 16.9824C187.235 16.9824 188.289 17.2103 189.217 17.666C190.152 18.1217 190.877 18.7565 191.389 19.5703C191.902 20.3841 192.158 21.2915 192.158 22.2925H190.645C190.645 21.0799 190.23 20.1074 189.4 19.375C188.57 18.6344 187.455 18.2642 186.055 18.2642C184.696 18.2642 183.614 18.5693 182.808 19.1797C182.002 19.7819 181.599 20.5713 181.599 21.5479C181.599 22.4512 181.962 23.1877 182.686 23.7573C183.41 24.327 184.57 24.8315 186.165 25.271C187.76 25.7023 188.968 26.154 189.79 26.626C190.612 27.0898 191.231 27.6473 191.646 28.2983C192.061 28.9494 192.268 29.7184 192.268 30.6055C192.268 32.0052 191.707 33.1283 190.584 33.9746C189.469 34.821 187.996 35.2441 186.165 35.2441C184.912 35.2441 183.76 35.0203 182.71 34.5728C181.669 34.1252 180.875 33.4985 180.33 32.6929C179.793 31.8872 179.524 30.9635 179.524 29.9219H181.026C181.026 31.1751 181.494 32.1639 182.429 32.8882C183.365 33.6125 184.61 33.9746 186.165 33.9746C187.548 33.9746 188.659 33.6694 189.497 33.0591C190.336 32.4487 190.755 31.639 190.755 30.6299ZM193.789 34.1211C193.789 33.8363 193.879 33.5962 194.058 33.4009C194.245 33.1974 194.501 33.0957 194.827 33.0957C195.152 33.0957 195.409 33.1974 195.596 33.4009C195.783 33.5962 195.877 33.8363 195.877 34.1211C195.877 34.4059 195.783 34.6419 195.596 34.8291C195.409 35.0081 195.152 35.0977 194.827 35.0977C194.501 35.0977 194.245 35.0081 194.058 34.8291C193.879 34.6419 193.789 34.4059 193.789 34.1211ZM211.582 29.458C211.379 31.3298 210.707 32.762 209.568 33.7549C208.437 34.7477 206.927 35.2441 205.039 35.2441C203.721 35.2441 202.553 34.9146 201.536 34.2554C200.527 33.5962 199.746 32.6644 199.192 31.46C198.639 30.2474 198.358 28.8639 198.35 27.3096V25.0024C198.35 23.4237 198.627 22.0239 199.18 20.8032C199.733 19.5825 200.527 18.6426 201.56 17.9834C202.602 17.3161 203.798 16.9824 205.149 16.9824C207.054 16.9824 208.555 17.4992 209.654 18.5327C210.76 19.5581 211.403 20.9782 211.582 22.793H210.069C209.694 19.7738 208.054 18.2642 205.149 18.2642C203.538 18.2642 202.252 18.8664 201.292 20.0708C200.34 21.2752 199.864 22.9395 199.864 25.0635V27.2363C199.864 29.2871 200.327 30.9229 201.255 32.1436C202.191 33.3643 203.452 33.9746 205.039 33.9746C206.61 33.9746 207.794 33.6003 208.592 32.8516C209.389 32.0947 209.881 30.9635 210.069 29.458H211.582ZM213.506 34.1211C213.506 33.8363 213.596 33.5962 213.775 33.4009C213.962 33.1974 214.218 33.0957 214.544 33.0957C214.869 33.0957 215.126 33.1974 215.313 33.4009C215.5 33.5962 215.594 33.8363 215.594 34.1211C215.594 34.4059 215.5 34.6419 215.313 34.8291C215.126 35.0081 214.869 35.0977 214.544 35.0977C214.218 35.0977 213.962 35.0081 213.775 34.8291C213.596 34.6419 213.506 34.4059 213.506 34.1211Z" fill="#424242" fill-opacity="0.7"/>
</svg>
