<svg width="246" height="96" viewBox="0 0 246 96" fill="none" xmlns="http://www.w3.org/2000/svg">
<path d="M18.088 59V40.8H15.484V54.408L5.264 40.8H2.24V59H4.844V44.328L15.876 59H18.088ZM32.8044 44.636C31.1524 49.312 29.6124 52.812 28.0164 55.948C25.9724 52.224 24.2084 48.388 22.8364 44.636H20.0364C21.8284 49.368 23.9564 53.876 26.5884 58.636C25.5244 60.596 24.4044 62.5 23.2284 64.6H26.1404C30.2844 57.46 33.6164 50.46 35.7444 44.636H32.8044ZM43.3088 44.328C41.5168 44.328 39.6408 44.58 37.6808 45.168V47.66C39.7528 46.988 41.1808 46.68 43.0288 46.68C45.4648 46.68 47.5648 47.212 47.5648 50.04V50.88C46.2768 50.236 44.5128 49.872 42.8328 49.872C39.7528 49.872 36.7848 51.104 36.7848 54.548C36.7848 57.74 39.3608 59.336 42.4688 59.336C44.6808 59.336 46.6128 58.524 47.8448 57.684L48.1808 59H50.0848V50.516C50.0848 45.924 47.8448 44.328 43.3088 44.328ZM39.4448 54.52C39.4448 52.644 41.0688 51.972 43.1408 51.972C44.4288 51.972 46.1368 52.224 47.5648 52.98V55.584C46.7248 56.116 45.1008 57.04 42.9168 57.04C41.2088 57.04 39.4448 56.48 39.4448 54.52ZM56.7919 59V39.652H54.2719V59H56.7919ZM66.9064 44.328C65.1144 44.328 63.2384 44.58 61.2784 45.168V47.66C63.3504 46.988 64.7784 46.68 66.6264 46.68C69.0624 46.68 71.1624 47.212 71.1624 50.04V50.88C69.8744 50.236 68.1104 49.872 66.4304 49.872C63.3504 49.872 60.3824 51.104 60.3824 54.548C60.3824 57.74 62.9584 59.336 66.0664 59.336C68.2784 59.336 70.2104 58.524 71.4424 57.684L71.7784 59H73.6824V50.516C73.6824 45.924 71.4424 44.328 66.9064 44.328ZM63.0424 54.52C63.0424 52.644 64.6664 51.972 66.7384 51.972C68.0264 51.972 69.7344 52.224 71.1624 52.98V55.584C70.3224 56.116 68.6984 57.04 66.5144 57.04C64.8064 57.04 63.0424 56.48 63.0424 54.52ZM99.9329 40.8C98.6449 43.684 97.2449 46.876 94.8929 52.7C93.1289 48.108 91.4769 44.16 89.9649 40.8H87.3049C86.4089 44.048 85.1489 47.94 83.6369 59H86.3249C87.4729 50.656 88.4809 46.428 88.9569 44.496C89.3769 45.168 91.2529 49.872 93.9689 57.068H95.8169C97.3849 52.896 99.1489 48.528 100.885 44.356C101.361 46.26 102.341 50.488 103.489 59H106.149C104.749 47.828 103.461 43.964 102.593 40.8H99.9329ZM115.956 44.328C111.868 44.328 108.256 46.904 108.256 51.86C108.256 56.872 111.868 59.336 115.928 59.336C120.016 59.336 123.656 56.9 123.656 51.86C123.656 46.904 120.044 44.328 115.956 44.328ZM115.956 46.68C118.84 46.68 121.024 48.668 121.024 51.86C121.024 54.548 119.428 56.956 115.984 56.956C112.484 56.956 110.888 54.548 110.888 51.86C110.888 48.668 113.072 46.68 115.956 46.68ZM134.818 44.636H130.03V40.968H127.846L127.51 44.636H124.766V46.792H127.51V54.996C127.51 58.524 129.806 59.336 132.438 59.336C132.914 59.336 134.006 59.196 135.238 58.832V56.592C134.034 56.984 132.746 57.096 132.326 57.096C130.898 57.096 130.03 56.564 130.03 54.968V46.792H134.818V44.636ZM145.05 44.328C140.962 44.328 137.35 46.904 137.35 51.86C137.35 56.872 140.962 59.336 145.022 59.336C149.11 59.336 152.75 56.9 152.75 51.86C152.75 46.904 149.138 44.328 145.05 44.328ZM145.05 46.68C147.934 46.68 150.118 48.668 150.118 51.86C150.118 54.548 148.522 56.956 145.078 56.956C141.578 56.956 139.982 54.548 139.982 51.86C139.982 48.668 142.166 46.68 145.05 46.68ZM164.612 44.328C162.148 44.356 160.412 44.972 158.396 46.232L157.948 44.636H156.1V59H158.62V48.528C159.768 47.632 161.896 46.876 164.612 46.848V44.328ZM172.383 44.328C169.639 44.328 166.307 44.86 166.307 48.528C166.307 50.18 167.455 51.692 169.555 52.196L173.755 53.204C174.875 53.484 175.743 53.904 175.743 54.968C175.743 56.76 173.587 57.012 171.627 57.012C169.527 57.012 167.175 56.424 166.167 56.116V58.552C167.679 58.972 169.891 59.336 171.599 59.336C175.491 59.336 178.291 58.412 178.291 54.996C178.291 52.112 176.443 51.3 174.147 50.768L170.955 50.04C169.583 49.732 168.883 49.2 168.883 48.416C168.883 46.736 170.843 46.652 172.439 46.652C174.259 46.652 176.191 47.016 177.703 47.52V45.084C176.359 44.692 174.511 44.328 172.383 44.328Z" fill="white"/>
<path d="M195.39 40.464C191.33 40.464 187.942 41.892 187.942 45.448C187.942 48.36 189.93 49.676 192.254 50.292L196.538 51.468C198.106 51.888 199.254 52.644 199.254 54.128C199.254 55.836 197.294 56.928 194.242 56.928C191.834 56.928 189.818 56.144 187.69 55.444V58.104C189.79 58.888 191.862 59.336 194.242 59.336C199.142 59.336 201.97 57.432 201.97 54.044C201.97 51.272 200.122 49.9 197.882 49.284L193.262 47.968C191.75 47.548 190.602 46.792 190.602 45.448C190.602 43.432 193.01 42.844 195.39 42.844C197.266 42.844 198.834 43.208 201.186 43.936V41.416C199.478 40.856 197.658 40.464 195.39 40.464ZM207.583 59V56.284H204.783V59H207.583ZM220.212 40.464C214.5 40.464 209.404 43.488 209.404 50.068C209.404 56.788 215.088 59.336 220.156 59.336C223.152 59.336 225.112 58.72 226.316 58.216V55.64C223.908 56.592 222.676 56.872 220.352 56.872C216.488 56.872 212.176 54.996 212.176 50.04C212.176 45.28 215.732 42.928 220.156 42.928C222.284 42.928 224.328 43.432 226.176 44.384V41.64C224.692 40.968 222.256 40.464 220.212 40.464Z" fill="white" fill-opacity="0.7"/>
</svg>
