<svg width="218" height="96" viewBox="0 0 218 96" fill="none" xmlns="http://www.w3.org/2000/svg">
<path d="M17.8145 58H14.3555L5.48242 43.877V58H2.02344V38.0938H5.48242L14.3828 52.2715V38.0938H17.8145V58ZM26.7559 53.2422L29.7637 43.207H33.3047L27.4258 60.2422C26.5234 62.7305 24.9922 63.9746 22.832 63.9746C22.349 63.9746 21.8158 63.8926 21.2324 63.7285V61.1582L21.8613 61.1992C22.6999 61.1992 23.3288 61.0443 23.748 60.7344C24.1764 60.4336 24.5137 59.9232 24.7598 59.2031L25.2383 57.9316L20.043 43.207H23.625L26.7559 53.2422ZM43.8457 58C43.6999 57.7174 43.5723 57.2572 43.4629 56.6191C42.4056 57.722 41.1113 58.2734 39.5801 58.2734C38.0944 58.2734 36.8822 57.8496 35.9434 57.002C35.0046 56.1543 34.5352 55.1061 34.5352 53.8574C34.5352 52.2806 35.1185 51.0729 36.2852 50.2344C37.4609 49.3867 39.138 48.9629 41.3164 48.9629H43.3535V47.9922C43.3535 47.2266 43.1393 46.6159 42.7109 46.1602C42.2826 45.6953 41.6309 45.4629 40.7559 45.4629C39.9993 45.4629 39.3796 45.6543 38.8965 46.0371C38.4134 46.4108 38.1719 46.8893 38.1719 47.4727H34.8496C34.8496 46.6615 35.1185 45.9049 35.6562 45.2031C36.194 44.4922 36.9232 43.9362 37.8438 43.5352C38.7734 43.1341 39.8079 42.9336 40.9473 42.9336C42.679 42.9336 44.0599 43.3711 45.0898 44.2461C46.1198 45.112 46.6484 46.3333 46.6758 47.9102V54.582C46.6758 55.9128 46.8626 56.9746 47.2363 57.7676V58H43.8457ZM40.1953 55.6074C40.8516 55.6074 41.4668 55.4479 42.041 55.1289C42.6243 54.8099 43.0618 54.3815 43.3535 53.8438V51.0547H41.5625C40.332 51.0547 39.4069 51.2689 38.7871 51.6973C38.1673 52.1257 37.8574 52.7318 37.8574 53.5156C37.8574 54.1536 38.0671 54.6641 38.4863 55.0469C38.9147 55.4206 39.4844 55.6074 40.1953 55.6074ZM53.6895 58H50.3672V37H53.6895V58ZM66.1582 58C66.0124 57.7174 65.8848 57.2572 65.7754 56.6191C64.7181 57.722 63.4238 58.2734 61.8926 58.2734C60.4069 58.2734 59.1947 57.8496 58.2559 57.002C57.3171 56.1543 56.8477 55.1061 56.8477 53.8574C56.8477 52.2806 57.431 51.0729 58.5977 50.2344C59.7734 49.3867 61.4505 48.9629 63.6289 48.9629H65.666V47.9922C65.666 47.2266 65.4518 46.6159 65.0234 46.1602C64.5951 45.6953 63.9434 45.4629 63.0684 45.4629C62.3118 45.4629 61.6921 45.6543 61.209 46.0371C60.7259 46.4108 60.4844 46.8893 60.4844 47.4727H57.1621C57.1621 46.6615 57.431 45.9049 57.9688 45.2031C58.5065 44.4922 59.2357 43.9362 60.1562 43.5352C61.0859 43.1341 62.1204 42.9336 63.2598 42.9336C64.9915 42.9336 66.3724 43.3711 67.4023 44.2461C68.4323 45.112 68.9609 46.3333 68.9883 47.9102V54.582C68.9883 55.9128 69.1751 56.9746 69.5488 57.7676V58H66.1582ZM62.5078 55.6074C63.1641 55.6074 63.7793 55.4479 64.3535 55.1289C64.9368 54.8099 65.3743 54.3815 65.666 53.8438V51.0547H63.875C62.6445 51.0547 61.7194 51.2689 61.0996 51.6973C60.4798 52.1257 60.1699 52.7318 60.1699 53.5156C60.1699 54.1536 60.3796 54.6641 60.7988 55.0469C61.2272 55.4206 61.7969 55.6074 62.5078 55.6074ZM84.2461 38.0938L89.9883 53.3516L95.7168 38.0938H100.188V58H96.7422V51.4375L97.084 42.6602L91.2051 58H88.7305L82.8652 42.6738L83.207 51.4375V58H79.7617V38.0938H84.2461ZM103.346 50.4668C103.346 49.0176 103.633 47.7142 104.207 46.5566C104.781 45.39 105.588 44.4967 106.627 43.877C107.666 43.248 108.86 42.9336 110.209 42.9336C112.205 42.9336 113.823 43.5762 115.062 44.8613C116.311 46.1465 116.986 47.8509 117.086 49.9746L117.1 50.7539C117.1 52.2122 116.817 53.5156 116.252 54.6641C115.696 55.8125 114.894 56.7012 113.846 57.3301C112.807 57.959 111.604 58.2734 110.236 58.2734C108.149 58.2734 106.477 57.5807 105.219 56.1953C103.97 54.8008 103.346 52.946 103.346 50.6309V50.4668ZM106.668 50.7539C106.668 52.276 106.982 53.4701 107.611 54.3359C108.24 55.1927 109.115 55.6211 110.236 55.6211C111.357 55.6211 112.228 55.1836 112.848 54.3086C113.477 53.4336 113.791 52.153 113.791 50.4668C113.791 48.972 113.467 47.7871 112.82 46.9121C112.182 46.0371 111.312 45.5996 110.209 45.5996C109.124 45.5996 108.263 46.0326 107.625 46.8984C106.987 47.7552 106.668 49.0404 106.668 50.7539ZM124.072 39.6113V43.207H126.684V45.668H124.072V53.9258C124.072 54.4909 124.182 54.901 124.4 55.1562C124.628 55.4023 125.029 55.5254 125.604 55.5254C125.986 55.5254 126.374 55.4798 126.766 55.3887V57.959C126.009 58.1686 125.28 58.2734 124.578 58.2734C122.026 58.2734 120.75 56.8652 120.75 54.0488V45.668H118.316V43.207H120.75V39.6113H124.072ZM128.201 50.4668C128.201 49.0176 128.488 47.7142 129.062 46.5566C129.637 45.39 130.443 44.4967 131.482 43.877C132.521 43.248 133.715 42.9336 135.064 42.9336C137.061 42.9336 138.678 43.5762 139.918 44.8613C141.167 46.1465 141.841 47.8509 141.941 49.9746L141.955 50.7539C141.955 52.2122 141.673 53.5156 141.107 54.6641C140.551 55.8125 139.749 56.7012 138.701 57.3301C137.662 57.959 136.459 58.2734 135.092 58.2734C133.005 58.2734 131.332 57.5807 130.074 56.1953C128.826 54.8008 128.201 52.946 128.201 50.6309V50.4668ZM131.523 50.7539C131.523 52.276 131.838 53.4701 132.467 54.3359C133.096 55.1927 133.971 55.6211 135.092 55.6211C136.213 55.6211 137.083 55.1836 137.703 54.3086C138.332 53.4336 138.646 52.153 138.646 50.4668C138.646 48.972 138.323 47.7871 137.676 46.9121C137.038 46.0371 136.167 45.5996 135.064 45.5996C133.98 45.5996 133.118 46.0326 132.48 46.8984C131.842 47.7552 131.523 49.0404 131.523 50.7539ZM152.51 46.2422C152.072 46.1693 151.621 46.1328 151.156 46.1328C149.634 46.1328 148.609 46.7161 148.08 47.8828V58H144.758V43.207H147.93L148.012 44.8613C148.814 43.5762 149.926 42.9336 151.348 42.9336C151.822 42.9336 152.214 42.9974 152.523 43.125L152.51 46.2422ZM162.9 53.9805C162.9 53.388 162.654 52.9368 162.162 52.627C161.679 52.3171 160.872 52.0436 159.742 51.8066C158.612 51.5697 157.669 51.2689 156.912 50.9043C155.253 50.1022 154.424 48.9401 154.424 47.418C154.424 46.1419 154.962 45.0755 156.037 44.2188C157.113 43.362 158.48 42.9336 160.139 42.9336C161.907 42.9336 163.333 43.3711 164.418 44.2461C165.512 45.1211 166.059 46.2559 166.059 47.6504H162.736C162.736 47.0124 162.499 46.4837 162.025 46.0645C161.551 45.6361 160.923 45.4219 160.139 45.4219C159.41 45.4219 158.812 45.5905 158.348 45.9277C157.892 46.265 157.664 46.7161 157.664 47.2812C157.664 47.7917 157.878 48.1882 158.307 48.4707C158.735 48.7533 159.601 49.0404 160.904 49.332C162.208 49.6146 163.229 49.9564 163.967 50.3574C164.714 50.7493 165.266 51.2233 165.621 51.7793C165.986 52.3353 166.168 53.0098 166.168 53.8027C166.168 55.1335 165.617 56.2135 164.514 57.043C163.411 57.8633 161.966 58.2734 160.18 58.2734C158.967 58.2734 157.887 58.0547 156.939 57.6172C155.992 57.1797 155.253 56.5781 154.725 55.8125C154.196 55.0469 153.932 54.222 153.932 53.3379H157.158C157.204 54.1217 157.5 54.7279 158.047 55.1562C158.594 55.5755 159.318 55.7852 160.221 55.7852C161.096 55.7852 161.761 55.6211 162.217 55.293C162.673 54.9557 162.9 54.5182 162.9 53.9805Z" fill="white"/>
<path d="M186.771 52.873C186.771 51.998 186.462 51.3236 185.842 50.8496C185.231 50.3757 184.124 49.8971 182.52 49.4141C180.915 48.931 179.639 48.3932 178.691 47.8008C176.878 46.6615 175.971 45.1758 175.971 43.3438C175.971 41.7396 176.622 40.418 177.926 39.3789C179.238 38.3398 180.938 37.8203 183.025 37.8203C184.411 37.8203 185.646 38.0755 186.73 38.5859C187.815 39.0964 188.667 39.8255 189.287 40.7734C189.907 41.7122 190.217 42.7559 190.217 43.9043H186.771C186.771 42.8652 186.443 42.054 185.787 41.4707C185.14 40.8783 184.21 40.582 182.998 40.582C181.868 40.582 180.988 40.8236 180.359 41.3066C179.74 41.7897 179.43 42.4642 179.43 43.3301C179.43 44.0592 179.767 44.6699 180.441 45.1621C181.116 45.6452 182.228 46.1191 183.777 46.584C185.327 47.0397 186.571 47.5638 187.51 48.1562C188.449 48.7396 189.137 49.4141 189.574 50.1797C190.012 50.9362 190.23 51.8249 190.23 52.8457C190.23 54.5046 189.592 55.8262 188.316 56.8105C187.049 57.7858 185.327 58.2734 183.148 58.2734C181.708 58.2734 180.382 58.0091 179.17 57.4805C177.967 56.9427 177.028 56.2044 176.354 55.2656C175.688 54.3268 175.355 53.2331 175.355 51.9844H178.814C178.814 53.1146 179.188 53.9896 179.936 54.6094C180.683 55.2292 181.754 55.5391 183.148 55.5391C184.352 55.5391 185.254 55.2975 185.855 54.8145C186.466 54.3223 186.771 53.6751 186.771 52.873ZM195.016 54.5C195.635 54.5 196.114 54.6777 196.451 55.0332C196.788 55.3796 196.957 55.8171 196.957 56.3457C196.957 56.8652 196.788 57.2982 196.451 57.6445C196.114 57.9818 195.635 58.1504 195.016 58.1504C194.423 58.1504 193.954 57.9818 193.607 57.6445C193.261 57.3073 193.088 56.8743 193.088 56.3457C193.088 55.8171 193.257 55.3796 193.594 55.0332C193.931 54.6777 194.405 54.5 195.016 54.5ZM216.275 51.5195C216.075 53.6432 215.291 55.3021 213.924 56.4961C212.557 57.681 210.738 58.2734 208.469 58.2734C206.883 58.2734 205.484 57.8997 204.271 57.1523C203.068 56.3958 202.139 55.3249 201.482 53.9395C200.826 52.554 200.484 50.9453 200.457 49.1133V47.2539C200.457 45.3763 200.79 43.722 201.455 42.291C202.12 40.86 203.073 39.7572 204.312 38.9824C205.561 38.2077 207.001 37.8203 208.633 37.8203C210.829 37.8203 212.598 38.4173 213.938 39.6113C215.277 40.8053 216.057 42.4915 216.275 44.6699H212.83C212.666 43.2389 212.247 42.209 211.572 41.5801C210.907 40.9421 209.927 40.623 208.633 40.623C207.129 40.623 205.971 41.1745 205.16 42.2773C204.358 43.3711 203.948 44.9798 203.93 47.1035V48.8672C203.93 51.0182 204.312 52.6589 205.078 53.7891C205.853 54.9193 206.983 55.4844 208.469 55.4844C209.827 55.4844 210.848 55.179 211.531 54.5684C212.215 53.9577 212.648 52.9414 212.83 51.5195H216.275Z" fill="white" fill-opacity="0.7"/>
</svg>
